# xmcd
#
# Track frame offsets:
#	150
#	14109
#	29365
#	43783
#	59881
#	70632
#	88612
#	104562
#	120671
#
# Disc length: 1850 seconds
# Revision: 0
# Processed by: cddbd v1.5.2PL0 Copyright (c) Steve Scherf et al.
# Submitted via: dBpowerAMP V12.0
#
DISCID=81073809
DTITLE=Jonathan Brown - Jonathan Brown
DYEAR=2013
DGENRE=Country
TTITLE0=Ridgetop
TTITLE1=Rainy Day Pickin'
TTITLE2=Bluegrass Borderline
TTITLE3=Minor Problems
TTITLE4=When I'm 64
TTITLE5=The Old Spring House
TTITLE6=Sky Blue
TTITLE7=Lillie Mae
TTITLE8=Good Old Mom and Dad
EXTD=
EXTT0=
EXTT1=
EXTT2=
EXTT3=
EXTT4=
EXTT5=
EXTT6=
EXTT7=
EXTT8=
PLAYORDER=
